<svg xmlns="http://www.w3.org/2000/svg" viewBox="0 0 512 512">
  <defs>
    <linearGradient id="bgGrad" x1="0%" y1="0%" x2="100%" y2="100%">
      <stop offset="0%" style="stop-color:#10b981;stop-opacity:1" />
      <stop offset="100%" style="stop-color:#059669;stop-opacity:1" />
    </linearGradient>
  </defs>
  <!-- Background Circle -->
  <circle cx="256" cy="256" r="240" fill="url(#bgGrad)"/>
  
  <!-- Vegetable icon - stylized leaf/vegetable -->
  <path d="M256 120 C180 140, 140 200, 160 280 C180 360, 240 400, 256 400 C272 400, 332 360, 352 280 C372 200, 332 140, 256 120" 
        fill="#ffffff" opacity="0.9"/>
  
  <!-- Leaf vein -->
  <path d="M256 160 L256 360" stroke="#10b981" stroke-width="8" fill="none"/>
  <path d="M256 200 L200 240" stroke="#10b981" stroke-width="6" fill="none"/>
  <path d="M256 200 L312 240" stroke="#10b981" stroke-width="6" fill="none"/>
  <path d="M256 260 L190 300" stroke="#10b981" stroke-width="6" fill="none"/>
  <path d="M256 260 L322 300" stroke="#10b981" stroke-width="6" fill="none"/>
  <path d="M256 320 L210 350" stroke="#10b981" stroke-width="5" fill="none"/>
  <path d="M256 320 L302 350" stroke="#10b981" stroke-width="5" fill="none"/>
</svg>
